# xmcd
#
# Track frame offsets: 
#        150
#        8670
#        14299
#        30741
#        37862
#        52214
#        62776
#        76008
#        93459
#        106658
#        111426
#        117538
#        130896
#        146739
#        168956
#        185818
#        192641
#        202618
#        218633
#
# Disc length: 3152 seconds
#
# Revision: 1
# Processed by: cddbd v1.5.2PL0 Copyright (c) Steve Scherf et al.
# Submitted via: ExactAudioCopy v1.0b3
#
DISCID=060c4e13
DTITLE=Various Artist - Posaune - Trombone: Greatest works
DYEAR=2009
DGENRE=Klassische Musik
TTITLE0=Moritz (Hessen-Kassel) - Ludwig Güttler - Pavana del Tomaso di 
TTITLE0=Canora à 5 Tromboni
TTITLE1=Orlando di Lasso - Berliner Blechbläserquintett - Potsdamer Turm
TTITLE1=bläser - Das Echo
TTITLE2=Orlando di Lasso - Ludwig Güttler - Timor et tremor
TTITLE3=Orazio Vecchi - Ludwig Güttler - Clorinda
TTITLE4=Giovanni Gabrieli - Ludwig Güttler - Canzon quarti toni a 15 [S
TTITLE4=ymphoniae sacrae]
TTITLE5=Luca Marenzio - Ludwig Güttler - Ond'ei di morte
TTITLE6=Heinrich Schütz - Ludwig Güttler - Auf dem Gebirge hat man ein 
TTITLE6=Geschrei gehört op. 11 Nr. 28 SWV 396
TTITLE7=Heinrich Schütz - Ludwig Güttler - Die Himmel erzählen die Ehre
TTITLE7=Gottes op. 11 Nr. 18 SWV 386
TTITLE8=Heinrich Schütz - Ludwig Güttler - Was mein Gott will, das gesc
TTITLE8=heh allezeit op. 11 Nr. 24 SWV 392
TTITLE9=Blasende Music Leipzig - Allein Gott in der Höh' sei Ehr'
TTITLE10=Blasende Music Leipzig - Wir gläuben all' an einen Gott
TTITLE11=Giovanni Martino Cesare - Posaunenquintett Berlin - Armin Thalh
TTITLE11=eim - Frank Deike - Joachim Klier - La Bavara
TTITLE12=Daniel Speer - Posaunenquintett Berlin - Sonata zu 4 Stimmen
TTITLE13=Pavel Josef Vejvanovský - Ludwig Güttler - Sonata à 8 "Sancti 
TTITLE13=Petri et Pauli"
TTITLE14=Anton Bruckner - Potsdamer Turmbläser - Ave Maria (Andante)
TTITLE15=Igor Strawinsky - Dresdner Philharmonie - Herbert Kegel - Vivo 
TTITLE15=[Pulcinella]
TTITLE16=Aram Chatschaturjan - Posaunenquintett Berlin - Säbeltanz [Gay
TTITLE16=aneh]
TTITLE17=Frigyes Hidas - Posaunenquintett Berlin - Scherzo e corale für
TTITLE17=vier Posaunen
TTITLE18=Bert Poulheim - Posaunenquintett Berlin - Türkische Fantasie f
TTITLE18=ür vier Posaunen und Tuba
EXTD=YEAR: 1987
EXTT0=
EXTT1=
EXTT2=
EXTT3=
EXTT4=
EXTT5=
EXTT6=
EXTT7=
EXTT8=
EXTT9=
EXTT10=
EXTT11=
EXTT12=
EXTT13=
EXTT14=
EXTT15=
EXTT16=
EXTT17=
EXTT18=
PLAYORDER=
